<?xml version="1.0" encoding="utf-8" ?><svg xmlns="http://www.w3.org/2000/svg" xmlns:xlink="http://www.w3.org/1999/xlink" width="440" height="404" viewBox="0 0 440 404"><path fill="#1F50CF" d="M161.599 92.7396C161.451 88.5072 161.08 84.1068 161.528 79.8917C162.554 70.2389 168.099 60.5033 175.689 54.4506C183.79 47.9895 194.738 45.1764 204.947 46.4323C215.402 47.7183 224.384 52.9143 230.779 61.2627C235.926 67.9818 237.733 74.9827 237.92 83.2876C238.086 90.6375 237.177 96.1183 233.846 102.741C232.912 104.597 229.296 108.625 229.387 110.442C229.485 112.405 298.604 240.38 299.805 241.302C300.422 241.775 301.21 241.552 301.928 241.488C304.899 240.937 311.878 240.808 314.81 241.493C319.635 241.628 326.745 245.163 330.723 247.859C339.23 253.624 344.648 262.756 346.41 272.832C348.233 283.284 345.756 294.03 339.541 302.629C327.137 319.909 302.943 323.071 285.85 310.903C281.099 313.438 273.855 318.976 268.847 322.04C252.592 331.874 234.527 338.343 215.724 341.063C210.877 341.79 206.356 341.786 201.518 341.976C174.124 343.051 150.229 334.85 126.771 321.43C120.941 318.094 115.306 314.791 109.842 310.74L109.189 311.099C98.0782 317.164 88.2896 318.492 75.8267 314.812C62.3035 310.82 54.216 301.305 50.466 287.998C48.6911 281.7 49.1417 272.862 50.9955 266.64C53.2889 258.942 59.1998 251.208 66.0278 246.878C69.2115 244.847 72.6552 243.454 75.9272 241.722C76.1905 233.319 75.8364 227.586 76.8696 218.905C81.9948 176.223 103.335 137.146 136.472 109.761C140.8 106.183 146.054 102.434 150.785 99.3272C154.011 97.208 158.282 95.4086 161.391 92.9091L161.599 92.7396ZM126.195 269.912C138.804 274.337 152.032 276.747 165.391 277.055C180.186 277.544 190.442 276.742 204.266 270.421C234.608 256.549 237.891 224.558 232.808 195.24C231.92 190.119 229.427 185.504 228.17 180.686C237.643 192.192 245.863 203.943 251.705 217.729C254.32 223.902 258.097 229.812 256.996 236.778C253.213 260.713 237.85 282.218 215.458 292.033C206.515 295.952 197.509 297.811 187.802 298.811C175.951 300.454 165.285 299.95 153.484 298.568C147.886 297.913 142.34 297.045 136.807 295.878C135.068 295.555 128.187 293.895 127.28 293.949L127.098 294.221C127.83 295.343 130.253 297.254 131.451 298.087C144.773 307.341 162.294 314.109 177.944 317.529C192.381 320.683 204.998 320.9 219.353 317.826C220.922 317.49 226.474 316.452 227.685 315.847C232.931 314.35 236.974 312.836 242.059 311.123C249.805 307.724 266.975 299.515 271.727 292.744C268.591 285.942 269.332 273.188 272.042 266.354C274.553 260.021 275.798 258.586 279.743 253.39C274.451 242.938 269.02 232.557 263.452 222.25C253.754 203.874 244.029 184.301 228.152 170.173C224.683 167.086 218.767 164.127 214.184 162.704C203.622 159.427 194.767 159.114 184.599 164.093C176.438 168.089 170.052 178.213 167.561 186.918C163.201 202.152 163.638 223.534 166.864 239.094C167.546 242.382 169.505 247.293 171.013 250.205C173.75 255.49 177.631 259.849 182.723 262.933C184.914 264.26 187.038 265.368 189.01 267.019C180.637 269.453 162.526 269.049 154.154 265.918C148.429 261.977 144.934 252.332 142.937 245.988C131.135 208.5 139.731 150.176 183.761 138.229C193.347 135.627 207.561 136.479 217.495 137.739C214.949 132.737 212.001 127.245 209.658 122.203C196.31 124.55 182.411 122.604 172.779 112.161C130.51 136.501 101.989 177.85 98.1988 227.008C97.8339 231.741 98.1412 236.616 98.0264 241.36C109.015 245.039 117.118 250.452 122.716 261.12C124.441 264.406 124.916 267.075 126.195 269.912Z"/></svg>